<svg xmlns:xlink="http://www.w3.org/1999/xlink" width="1.332ex" height="2.509ex" style="vertical-align:-.671ex" viewBox="0 -791.3 573.5 1080.4" xmlns="http://www.w3.org/2000/svg" aria-labelledby="MathJax-SVG-1-Title"><defs aria-hidden="true"><path stroke-width="1" id="a" d="M29-194q-6 6-6 8 0 3 79 320t84 331q22 68 57 119t66 74q56 47 120 47h2q62 0 102-38t40-97q0-105-104-174l13-13q51-51 51-131 0-113-85-187T257-10q-30 0-54 8t-38 19-22 23-12 19-5 6L62-188q-2-6-20-6H29zm324 625q39 0 74-12l5 3 7 7 10 10q7 7 12 14t11 18 12 24 9 29 8 36q2 9 2 33 0 18-1 23-15 51-76 51-42 0-79-24t-61-61-39-68-23-59q-5-16-38-147t-34-140q-1-5-1-21 0-48 22-79 31-42 87-42 42 0 89 25t76 86q16 34 24 77t8 65q0 58-35 93-42-14-75-14h-10q-79 0-79 31 0 7 3 14 14 28 92 28z"/></defs><use xlink:href="#a" stroke="currentColor" fill="currentColor" stroke-width="0" transform="scale(1 -1)" aria-hidden="true"/></svg>